<?xml version="1.0" standalone="no"?>
<!DOCTYPE svg PUBLIC "-//W3C//DTD SVG 20010904//EN"
 "http://www.w3.org/TR/2001/REC-SVG-20010904/DTD/svg10.dtd">
<svg version="1.0" xmlns="http://www.w3.org/2000/svg"
 width="700.000000pt" height="700.000000pt" viewBox="0 0 700.000000 700.000000"
 preserveAspectRatio="xMidYMid meet">
<metadata>
Created by potrace 1.14, written by Peter Selinger 2001-2017
</metadata>
<g transform="translate(0.000000,700.000000) scale(0.100000,-0.100000)"
fill="#000000" stroke="none">
<path d="M601 5915 c-231 -52 -416 -236 -477 -475 -24 -94 -16 -251 19 -348
70 -199 243 -357 446 -408 97 -24 264 -16 359 18 206 74 355 241 407 455 22
93 16 239 -14 333 -60 189 -223 351 -411 411 -85 27 -242 34 -329 14z"/>
<path d="M2420 5915 c-298 -67 -505 -346 -487 -654 15 -255 178 -473 417 -558
97 -35 263 -43 361 -19 224 56 411 244 463 466 20 83 20 219 1 295 -54 214
-220 391 -425 456 -86 27 -242 34 -330 14z"/>
<path d="M6121 5915 c-228 -52 -413 -233 -472 -463 -86 -336 119 -679 457
-766 35 -9 103 -16 156 -16 219 0 402 99 526 284 75 112 97 193 97 351 -1 115
-4 138 -27 197 -75 196 -222 340 -408 399 -85 27 -242 34 -329 14z"/>
<path d="M4284 4091 c-280 -76 -474 -326 -474 -611 0 -288 207 -550 486 -616
100 -23 256 -15 352 18 184 65 333 217 393 399 20 63 24 93 24 204 0 115 -4
139 -26 202 -68 187 -211 325 -406 394 -86 31 -255 35 -349 10z"/>
<path d="M580 2315 c-201 -55 -377 -221 -441 -416 -21 -63 -24 -93 -24 -204 1
-115 4 -138 27 -197 75 -198 223 -341 413 -401 55 -17 94 -22 185 -22 91 0
130 5 185 22 193 61 355 222 416 413 27 83 36 229 19 312 -41 214 -194 393
-405 474 -60 23 -88 28 -195 30 -89 3 -141 -1 -180 -11z"/>
</g>
</svg>
