<svg fill="none" height="81" viewBox="-1 -1 81 81" width="81" xmlns="http://www.w3.org/2000/svg"><g rx="0" ry="0"><ellipse cx="39.5" cy="39.5" fill="#fff" opacity=".32" rx="39.5" ry="39.5"/><path d="m60.23 28.274-21.338-12.401-20.188 11.656 21.338 12.4z" fill="#0270bb" opacity=".47" rx="0" ry="0"/><path d="m40.042 39.929-21.338-12.4.065 23.198 21.339 12.4z" fill="#0270bb" opacity=".12" rx="0" ry="0"/><g stroke-linecap="round" stroke-linejoin="round"><path d="m40.042 39.929-21.338-12.4.065 23.198 21.339 12.4z" fill="none" rx="0" ry="0"/><path d="m40.042 39.929-21.338-12.4.065 23.198 21.339 12.4z" fill="none" rx="0" ry="0" stroke="#1e223b" stroke-width="2"/><path d="m40.042 39.929.066 23.198 20.188-11.655-.066-23.198z" fill="none" rx="0" ry="0"/><path d="m40.042 39.929.066 23.198 20.188-11.655-.066-23.198z" fill="none" rx="0" ry="0" stroke="#1e223b" stroke-width="2"/><path d="m60.23 28.274-21.338-12.401-20.188 11.656 21.338 12.4z" fill="none" rx="0" ry="0"/><path d="m60.23 28.274-21.338-12.401-20.188 11.656 21.338 12.4z" fill="none" rx="0" ry="0" stroke="#1e223b" stroke-width="2"/><path d="m40.042 39.929.066 23.198 20.188-11.655-.066-23.198z" fill="#fff" rx="0" ry="0"/><path d="m40.042 39.929.066 23.198 20.188-11.655-.066-23.198z" fill="none" rx="0" ry="0" stroke="#1e223b" stroke-width="2"/><ellipse cx="39.5" cy="39.5" fill="none" rx="39.5" ry="39.5"/><ellipse cx="39.5" cy="39.5" fill="none" rx="39.5" ry="39.5" stroke="#1e223b" stroke-width="2"/></g></g></svg>